<svg width="24" height="24" viewBox="0 0 24 24" fill="none" xmlns="http://www.w3.org/2000/svg">
<g clip-path="url(#clip0_4189_1130)">
<path d="M22.7958 11.7043C22.7208 8.94364 21.6125 6.44218 19.8439 4.5751C19.7054 4.43076 19.567 4.29251 19.423 4.1565C17.5555 2.3873 15.0558 1.27916 12.2954 1.20422C12.1967 1.20169 12.0978 1.20001 11.9989 1.20001C11.9 1.20001 11.8012 1.20169 11.7025 1.20422C8.94399 1.27916 6.44235 2.3873 4.57484 4.1565C4.43051 4.29446 4.29238 4.43274 4.15585 4.57707C2.38736 6.44444 1.27888 8.94361 1.20387 11.7043C1.20192 11.8032 1.19995 11.9023 1.19995 12.0008C1.19995 12.0994 1.20189 12.1982 1.20387 12.2973C1.27888 15.0555 2.38736 17.5572 4.15588 19.4248C4.29242 19.569 4.43054 19.7072 4.57487 19.8434C6.44238 21.6123 8.94402 22.7208 11.7025 22.7957C11.8013 22.7978 11.9001 22.8 11.9989 22.8C12.0977 22.8 12.1967 22.7978 12.2955 22.7957C15.0558 22.7208 17.5556 21.6123 19.423 19.8434C19.567 19.7072 19.7054 19.569 19.842 19.4248C21.6125 17.5572 22.7209 15.0555 22.7959 12.2973C22.7979 12.1982 22.8 12.0994 22.8 12.0008C22.8 11.9022 22.7979 11.8032 22.7959 11.7043H22.7958Z" fill="#F3F1F1"/>
<path d="M21.9814 11.7266C21.9121 9.17413 20.8873 6.86135 19.2521 5.13507C19.1241 5.00164 18.9962 4.87381 18.8629 4.74804C17.1364 3.11231 14.8252 2.08776 12.273 2.01844C12.1817 2.01611 12.0903 2.01456 11.9988 2.01456C11.9074 2.01456 11.8161 2.01611 11.7248 2.01844C9.17438 2.08776 6.86142 3.11231 5.13475 4.74804C5.00132 4.87562 4.87361 5.00345 4.74736 5.13688C3.11224 6.86342 2.08738 9.17413 2.01803 11.7266C2.01622 11.818 2.0144 11.9096 2.0144 12.0007C2.0144 12.0919 2.01622 12.1832 2.01803 12.2749C2.08738 14.825 3.11224 17.138 4.74736 18.8648C4.87361 18.9981 5.00129 19.1259 5.13475 19.2519C6.86142 20.8873 9.17438 21.9122 11.7248 21.9814C11.8161 21.9834 11.9075 21.9854 11.9988 21.9854C12.0902 21.9854 12.1817 21.9834 12.273 21.9814C14.8252 21.9122 17.1364 20.8873 18.8629 19.2519C18.9962 19.1258 19.1241 18.9981 19.2503 18.8648C20.8873 17.138 21.9121 14.8251 21.9814 12.2749C21.9834 12.1832 21.9852 12.0919 21.9852 12.0007C21.9852 11.9096 21.9833 11.818 21.9814 11.7266Z" fill="#0B0A0E"/>
<path d="M21.1401 11.7497C21.0766 9.4124 20.1382 7.2946 18.6409 5.71385C18.5236 5.59165 18.4065 5.47462 18.2845 5.35946C16.7035 3.86162 14.5872 2.92347 12.2502 2.86C12.1665 2.85787 12.0828 2.85645 11.9991 2.85645C11.9154 2.85645 11.8318 2.85787 11.7482 2.86C9.41276 2.92347 7.29482 3.86165 5.71371 5.35946C5.59151 5.47627 5.4746 5.59333 5.35899 5.71553C3.86173 7.29651 2.92327 9.4124 2.85974 11.7497C2.8581 11.8334 2.85645 11.9172 2.85645 12.0007C2.85645 12.0842 2.8581 12.1678 2.85974 12.2517C2.92324 14.5869 3.8617 16.7049 5.35899 18.2861C5.4746 18.4081 5.59151 18.5251 5.71371 18.6405C7.29479 20.1381 9.41276 21.0766 11.7482 21.14C11.8318 21.1418 11.9154 21.1436 11.9991 21.1436C12.0827 21.1436 12.1665 21.1418 12.2502 21.14C14.5872 21.0766 16.7035 20.1381 18.2845 18.6405C18.4065 18.5251 18.5236 18.4081 18.6392 18.2861C20.1382 16.7049 21.0765 14.5869 21.1401 12.2517C21.1419 12.1678 21.1436 12.0842 21.1436 12.0007C21.1436 11.9173 21.1419 11.8334 21.1401 11.7497Z" fill="#FFBB00"/>
<path d="M16.7504 6.8946L13.1602 10.4837C12.8243 10.8193 12.2502 10.5817 12.2502 10.1067V5.029C12.2502 4.70793 12.5313 4.46355 12.8504 4.49952C14.3038 4.66329 15.6319 5.23883 16.7151 6.10799C16.9595 6.30401 16.9721 6.67296 16.7504 6.8946Z" fill="#FFBB00"/>
<path fill-rule="evenodd" clip-rule="evenodd" d="M16.2732 6.52331L12.8502 9.94515V5.10363C14.1319 5.26062 15.3052 5.76579 16.2732 6.52331ZM12.7832 5.09574L12.7832 5.09575L12.7832 5.09574ZM13.1602 10.4837L16.7504 6.8946C16.9721 6.67296 16.9595 6.30401 16.7151 6.10799C15.6319 5.23883 14.3038 4.66329 12.8504 4.49952C12.5313 4.46355 12.2502 4.70793 12.2502 5.029V10.1067C12.2502 10.5817 12.8243 10.8193 13.1602 10.4837Z" fill="#0B0A0E"/>
<path d="M18.9708 11.7497H13.892C13.417 11.7497 13.1789 11.1753 13.515 10.8395L17.1054 7.24923C17.3268 7.02763 17.6959 7.04034 17.892 7.28475C18.7612 8.36804 19.3365 9.69584 19.5004 11.1495C19.5364 11.4686 19.292 11.7497 18.9708 11.7497Z" fill="#FFBB00"/>
<path fill-rule="evenodd" clip-rule="evenodd" d="M18.8963 11.1497C18.7391 9.86767 18.2342 8.6946 17.4765 7.72658L14.0533 11.1497H18.8963ZM18.9042 11.2166C18.9042 11.2166 18.9042 11.2167 18.9042 11.2167L18.9042 11.2168C18.9042 11.2167 18.9042 11.2167 18.9042 11.2166ZM17.5298 7.67338C17.5297 7.67342 17.5297 7.67346 17.5296 7.6735L17.5298 7.67338ZM19.5004 11.1495C19.3365 9.69584 18.7612 8.36804 17.892 7.28475C17.6959 7.04034 17.3268 7.02763 17.1054 7.24923L13.515 10.8395C13.1789 11.1753 13.417 11.7497 13.892 11.7497H18.9708C19.292 11.7497 19.5364 11.4686 19.5004 11.1495Z" fill="#0B0A0E"/>
<path d="M19.5002 12.852C19.3362 14.3051 18.7612 15.6321 17.8931 16.7155C17.6971 16.9606 17.328 16.9733 17.1061 16.7517L13.5153 13.1619C13.1793 12.8261 13.4169 12.2517 13.8919 12.2517H18.9706C19.2917 12.2517 19.5362 12.533 19.5002 12.852Z" fill="#FFBB00"/>
<path fill-rule="evenodd" clip-rule="evenodd" d="M13.5153 13.1619L17.1061 16.7517C17.328 16.9733 17.6971 16.9606 17.8931 16.7155C18.7612 15.6321 19.3362 14.3051 19.5002 12.852C19.5362 12.533 19.2917 12.2517 18.9706 12.2517H13.8919C13.4169 12.2517 13.1793 12.8261 13.5153 13.1619ZM18.896 12.8517C18.7389 14.1334 18.2341 15.3059 17.4772 16.2743L14.0537 12.8517H18.896ZM18.9039 12.785C18.9039 12.7849 18.9039 12.7847 18.9039 12.7846L18.9039 12.7847C18.9039 12.7848 18.9039 12.7849 18.9039 12.785Z" fill="#0B0A0E"/>
<path d="M16.7159 17.8936C15.6328 18.7614 14.3046 19.3365 12.8501 19.5002C12.5311 19.5361 12.25 19.2918 12.25 18.9705V13.8933C12.25 13.4184 12.8241 13.18 13.16 13.5161L16.7517 17.1066C16.9733 17.3285 16.9605 17.6971 16.7159 17.8936Z" fill="#FFBB00"/>
<path fill-rule="evenodd" clip-rule="evenodd" d="M12.85 14.0546V18.8961C14.1329 18.7391 15.3065 18.2343 16.2744 17.4778L12.85 14.0546ZM12.8501 19.5002C14.3046 19.3365 15.6328 18.7614 16.7159 17.8936C16.9605 17.6971 16.9733 17.3285 16.7517 17.1066L13.16 13.5161C12.8241 13.18 12.25 13.4184 12.25 13.8933V18.9705C12.25 19.2918 12.5311 19.5361 12.8501 19.5002Z" fill="#0B0A0E"/>
<path d="M11.7481 13.8933V18.9705C11.7481 19.2918 11.4669 19.5361 11.1478 19.5002C9.69465 19.3362 8.36663 18.7611 7.28381 17.8934C7.03903 17.6971 7.02596 17.3285 7.24774 17.1065L10.838 13.5164C11.1739 13.1805 11.7481 13.4185 11.7481 13.8933Z" fill="#FFBB00"/>
<path fill-rule="evenodd" clip-rule="evenodd" d="M10.838 13.5164L7.24774 17.1065C7.02596 17.3285 7.03903 17.6971 7.28381 17.8934C8.36663 18.7611 9.69465 19.3362 11.1478 19.5002C11.4669 19.5361 11.7481 19.2918 11.7481 18.9705V13.8933C11.7481 13.4185 11.1739 13.1805 10.838 13.5164ZM11.1481 18.8961C9.86634 18.7389 8.69292 18.234 7.7252 17.4776L11.1481 14.0548V18.8961Z" fill="#0B0A0E"/>
<path d="M10.4835 13.1619L6.89318 16.7521C6.67144 16.9738 6.30265 16.9608 6.10621 16.7163C5.23739 15.6322 4.66193 14.3051 4.4979 12.852C4.46193 12.533 4.70648 12.2517 5.02749 12.2517H10.1064C10.5814 12.2517 10.8194 12.8259 10.4835 13.1619Z" fill="#FFBB00"/>
<path fill-rule="evenodd" clip-rule="evenodd" d="M10.4835 13.1619C10.8194 12.8259 10.5814 12.2517 10.1064 12.2517H5.02749C4.70648 12.2517 4.46193 12.533 4.4979 12.852C4.66193 14.3051 5.23739 15.6322 6.10621 16.7163C6.30265 16.9608 6.67144 16.9738 6.89318 16.7521L10.4835 13.1619ZM6.52198 16.2748L9.94512 12.8517H5.10201C5.25925 14.1332 5.7644 15.3058 6.52198 16.2748Z" fill="#0B0A0E"/>
<path d="M10.1064 11.7497H5.02718C4.70623 11.7497 4.46171 11.4686 4.49765 11.1494C4.66146 9.69488 5.23685 8.36631 6.10596 7.28315C6.30243 7.0387 6.67119 7.02596 6.89271 7.24779L10.4836 10.8397C10.8194 11.1755 10.5816 11.7497 10.1064 11.7497H10.1064Z" fill="#FFBB00"/>
<path d="M11.748 5.029V10.1062C11.748 10.5814 11.1739 10.8192 10.838 10.4832L7.24773 6.8934C7.02598 6.67176 7.03902 6.30259 7.28379 6.10634C8.36662 5.23858 9.69464 4.66329 11.1477 4.49952C11.4669 4.46355 11.748 4.70793 11.748 5.029Z" fill="#FFBB00"/>
<path fill-rule="evenodd" clip-rule="evenodd" d="M10.838 10.4832C11.1739 10.8192 11.748 10.5814 11.748 10.1062V5.029C11.748 4.70793 11.4669 4.46355 11.1477 4.49952C9.69464 4.66329 8.36662 5.23858 7.28379 6.10634C7.03902 6.30259 7.02598 6.67176 7.24773 6.8934L10.838 10.4832ZM11.148 5.10361V9.94474L7.72509 6.52223C8.69289 5.76569 9.86637 5.26061 11.148 5.10361ZM7.67189 6.46904C7.67192 6.46906 7.67194 6.46908 7.67196 6.46911L7.67189 6.46904Z" fill="#0B0A0E"/>
<path fill-rule="evenodd" clip-rule="evenodd" d="M5.10762 11.1497C5.26476 9.86767 5.76972 8.6946 6.52736 7.72658L9.95057 11.1497H5.10762ZM5.09975 11.2166C5.09974 11.2166 5.09974 11.2167 5.09973 11.2167L5.09973 11.2168C5.09973 11.2167 5.09974 11.2167 5.09975 11.2166ZM6.47416 7.67338C6.4742 7.67342 6.47424 7.67346 6.47428 7.6735L6.47416 7.67338ZM4.50351 11.1495C4.66745 9.69584 5.24268 8.36804 6.11195 7.28475C6.30798 7.04034 6.67706 7.02763 6.89854 7.24923L10.4889 10.8395C10.825 11.1753 10.5869 11.7497 10.1119 11.7497H5.03307C4.71193 11.7497 4.46748 11.4686 4.50351 11.1495Z" fill="#0B0A0E"/>
</g>
<defs>
<clipPath id="clip0_4189_1130">
<rect width="21.6" height="21.6" fill="white" transform="translate(1.19995 1.20001)"/>
</clipPath>
</defs>
</svg>
