<svg width="80" height="80" viewBox="0 0 80 80" fill="none" xmlns="http://www.w3.org/2000/svg">
<g clip-path="url(#clip0_4081_1176)">
<path d="M40.0005 79C36.4442 79 33.4321 76.5988 32.4879 73.3249C32.0842 73.3895 31.674 73.4224 31.261 73.4224C29.186 73.4224 27.2312 72.6133 25.7569 71.1439C24.823 70.2154 24.151 69.0902 23.7792 67.8592C23.2036 67.9967 22.6084 68.0689 22.0038 68.0689C21.3101 68.0689 20.6178 67.9756 19.9458 67.7914C17.4388 67.1014 15.5291 65.231 14.6754 62.9258C14.0686 63.0755 13.4442 63.1524 12.8171 63.1524C10.0291 63.1524 7.43304 61.6449 6.04181 59.2182L5.78838 58.5259C5.10413 56.6569 4.99182 54.6248 5.46609 52.6911L5.52319 52.4585C5.90249 51.4668 6.47154 50.5741 7.19835 49.8223C6.87127 49.4166 6.58236 48.9756 6.3374 48.5045C5.42154 46.7434 5.20259 44.7193 5.72072 42.805C6.06304 41.5426 6.70275 40.4212 7.55084 39.5091C6.70235 38.5967 6.06264 37.4748 5.72072 36.212C5.03407 33.6757 5.67517 31.0633 7.23413 29.1539C6.29863 28.1967 5.62056 27.0075 5.26737 25.6749C4.72962 23.6461 5.00946 21.5287 6.05557 19.7128C7.44859 17.2947 10.0423 15.7926 12.8245 15.7926C13.4553 15.7926 14.0822 15.87 14.691 16.0209C14.8372 15.6334 15.0143 15.2561 15.2217 14.893C16.2613 13.073 17.9441 11.7686 19.9601 11.2204C20.6273 11.0389 21.3151 10.9468 22.0042 10.9468C22.6104 10.9468 23.204 11.0175 23.7765 11.1523C24.1492 9.91866 24.8233 8.79033 25.7606 7.85828C27.2324 6.39483 29.1834 5.58881 31.2542 5.58881C31.6697 5.58881 32.0824 5.62218 32.4886 5.6874C33.4337 2.40532 36.447 0 40.0007 0H40.0122C43.5708 0.0111209 46.574 2.41715 47.5126 5.6889C47.9153 5.62468 48.3245 5.59192 48.7364 5.59192C50.8114 5.59192 52.7661 6.40104 54.2405 7.8704C55.1754 8.79985 55.8479 9.92657 56.2194 11.1591C56.7936 11.0234 57.3894 10.9522 57.9976 10.9522C58.6868 10.9522 59.3751 11.0444 60.0433 11.226C61.9444 11.747 63.5654 12.9564 64.6125 14.6324C64.8896 15.076 65.12 15.5415 65.3025 16.0225C65.9135 15.8704 66.5428 15.7924 67.1759 15.7924C69.9582 15.7924 72.5519 17.2945 73.9448 19.7126C75.7407 22.8356 75.1571 26.6959 72.762 29.154C74.3212 31.0638 74.963 33.6766 74.2769 36.2117C73.9345 37.4741 73.2948 38.5955 72.4467 39.5076C73.2952 40.42 73.9349 41.5419 74.2768 42.8047C74.8255 44.8314 74.5563 46.9508 73.5187 48.7725C73.3074 49.1434 73.0675 49.4945 72.8023 49.8227C73.7196 50.7738 74.3845 51.9492 74.7331 53.2641C75.2709 55.2929 74.9909 57.4103 73.9448 59.2262C72.5519 61.6442 69.9582 63.1463 67.1759 63.1463C66.5522 63.1463 65.9322 63.0705 65.3296 62.923C65.1798 63.3307 64.9956 63.7279 64.778 64.1099C63.7396 65.9321 62.0577 67.2382 60.0421 67.7872C59.3753 67.9697 58.6842 68.0627 57.9908 68.0627C57.3858 68.0627 56.7933 67.9923 56.222 67.8581C55.8496 69.0932 55.175 70.223 54.2368 71.1558C52.7648 72.6195 50.8136 73.4255 48.743 73.4255C48.3261 73.4255 47.9121 73.392 47.5045 73.3262C46.5558 76.5961 43.5529 78.9941 40.0129 78.9998H40.0005V79Z" fill="#F3F1F1"/>
<path d="M40.0004 76.4953C37.0669 76.4953 34.6766 74.0977 34.672 71.1507V69.6744C33.7183 70.4791 32.5242 70.9177 31.2609 70.9177C29.8472 70.9177 28.5154 70.3663 27.5106 69.3651C26.5014 68.3616 25.9409 67.021 25.9339 65.5915C25.9269 64.1603 26.4753 62.812 27.4783 61.7947L34.6747 54.5013V48.756L29.8579 51.5596L27.0072 62.1155L26.9613 62.1622C26.1689 64.1908 24.2048 65.564 22.0036 65.564C21.5313 65.564 21.0593 65.5003 20.6008 65.3747C17.8912 64.629 16.2405 61.8991 16.7762 59.173L15.7116 59.7925L15.6632 59.8412L15.4227 59.9607C14.6268 60.4101 13.7271 60.6474 12.8168 60.6474C10.917 60.6474 9.14803 59.6204 8.20028 57.9672L7.81211 56.9799C7.62465 56.5031 7.5224 55.9966 7.51005 55.4841L7.49749 54.9629C7.52001 54.6091 7.57771 54.2551 7.67119 53.9047C8.04013 52.5232 8.922 51.3691 10.1545 50.6551L11.4491 49.9015C8.86978 48.9621 7.39235 46.1668 8.12444 43.4624C8.75518 41.1364 10.8672 39.5125 13.2611 39.5125C13.7325 39.5125 14.2037 39.576 14.6615 39.7013L24.4039 42.3625L29.3701 39.4711L24.4898 36.6308L14.6606 39.3154C14.2033 39.4405 13.7317 39.504 13.2598 39.504C10.8658 39.504 8.75418 37.8797 8.12454 35.5539C7.38458 32.8205 8.90018 29.9953 11.5283 29.0865L10.1505 28.284C8.92041 27.5679 8.04103 26.4119 7.67448 25.0296C7.30804 23.6473 7.49869 22.2048 8.21124 20.9677C9.16019 19.3204 10.9278 18.297 12.8242 18.297C13.7575 18.297 14.679 18.5462 15.4889 19.0178L16.759 19.7571C16.534 18.5154 16.7497 17.2467 17.3819 16.1401C18.0902 14.9 19.2367 14.0115 20.6103 13.6379C21.0659 13.5139 21.5347 13.4511 22.0038 13.4511C24.4023 13.4511 26.5153 15.0784 27.1423 17.4084L29.8322 27.3649L34.6717 30.1824V24.5123L27.4651 17.206C26.4592 16.1834 25.9123 14.8212 25.931 13.377C25.9478 12.0731 26.4415 10.8089 27.3151 9.84512C28.3369 8.7179 29.749 8.09302 31.2538 8.09302C32.519 8.09302 33.7152 8.53245 34.672 9.33977V7.85187C34.6811 4.90032 37.0714 2.50421 40.0003 2.50421H40.0118C42.946 2.51343 45.3294 4.92016 45.3248 7.8694V9.33957C46.2786 8.53486 47.4727 8.09623 48.7359 8.09623C50.1496 8.09623 51.4814 8.64767 52.4862 9.64885C53.4954 10.6523 54.0559 11.993 54.063 13.4224C54.07 14.8536 53.5215 16.202 52.5186 17.2192L45.3253 24.5121L45.3269 30.1829L50.1674 27.3648L52.8578 17.4064C53.4886 15.0801 55.6017 13.4565 57.9971 13.4565C58.4667 13.4565 58.936 13.5194 59.3921 13.6435C62.074 14.3784 63.7212 17.0588 63.2388 19.7579L64.5108 19.0175C65.3206 18.546 66.2421 18.2967 67.1754 18.2967C69.0718 18.2967 70.8393 19.3201 71.7884 20.9674C73.2585 23.524 72.3882 26.8055 69.8489 28.2839L68.4698 29.0869C71.0974 29.9979 72.6118 32.8221 71.8724 35.5537C71.2418 37.8797 69.1296 39.5035 66.7358 39.5035C66.2643 39.5035 65.7932 39.44 65.3354 39.3148L55.5071 36.6305L50.6268 39.4708L55.593 42.3623L65.3362 39.7009C65.7936 39.5756 66.2652 39.5121 66.7371 39.5121C69.1311 39.5121 71.2428 41.1365 71.8724 43.4623C72.2462 44.8431 72.0629 46.2869 71.3562 47.5278C70.7232 48.6392 69.7378 49.4694 68.5519 49.9004L69.8476 50.6536C71.0792 51.3706 71.9587 52.5265 72.3251 53.9089C72.6916 55.2912 72.5009 56.7337 71.7884 57.9707C70.8394 59.618 69.0718 60.6414 67.1755 60.6414C66.2422 60.6414 65.3208 60.3922 64.5107 59.9206L63.2207 59.1699C63.4703 60.4348 63.2602 61.7336 62.6157 62.8646C61.9084 64.106 60.7628 64.9956 59.39 65.3695C58.934 65.4943 58.4623 65.5578 57.9903 65.5578C55.5926 65.5578 53.4808 63.9323 52.8544 61.6048L50.1415 51.5593L45.3247 48.7557V54.5013L52.534 61.8105C53.5386 62.8315 54.0855 64.1962 54.0654 65.6426C54.0471 66.9464 53.552 68.2101 52.6772 69.1729C51.6556 70.2973 50.2454 70.9207 48.7424 70.9207C47.4773 70.9207 46.2812 70.4812 45.3243 69.6739V71.1473C45.3151 74.0942 42.9304 76.4903 40.0083 76.495H39.9999L40.0004 76.4953Z" fill="#0B0A0E"/>
<path d="M9.92718 56.9669C10.846 58.5697 12.884 59.1193 14.4784 58.1957C14.4813 58.1928 14.4841 58.1928 14.4869 58.19L19.9512 55.0102L18.7862 59.3266C18.3025 61.1108 19.3473 62.9524 21.1248 63.4415C22.8995 63.9279 24.7314 62.8776 25.2179 61.0905C25.2179 61.0876 25.2179 61.0848 25.2208 61.0819L28.1491 50.2388L36.6676 45.2806V55.3266L28.8935 63.2053C27.5969 64.5204 27.6054 66.6413 28.9136 67.9419C30.2217 69.2455 32.3313 69.2368 33.6251 67.9218L36.665 64.8398V71.1475C36.6679 72.9978 38.1649 74.4942 40.0054 74.4913C41.8402 74.4884 43.3257 72.992 43.3315 71.1475V64.8398L46.3714 67.9218C47.6651 69.2368 49.7747 69.2513 51.0829 67.9505C52.391 66.6498 52.4054 64.5291 51.1115 63.2139L51.103 63.2053L43.3319 55.3266V45.2806L51.8504 50.2388L54.7786 61.0819C55.2595 62.869 57.0914 63.9221 58.869 63.4358C60.6437 62.9524 61.6942 61.1108 61.2105 59.3237L60.0455 55.0073L65.5097 58.1871C67.1013 59.1136 69.1421 58.5669 70.0638 56.967C70.9855 55.367 70.4416 53.3153 68.8502 52.3886L63.4345 49.2405L67.6079 48.101C69.3855 47.6147 70.4331 45.7759 69.9494 43.9888C69.4657 42.2018 67.6366 41.1486 65.859 41.6349L55.3137 44.5154L46.6494 39.471L55.228 34.4783L65.8591 37.3818C67.6367 37.8681 69.4658 36.812 69.9495 35.0279C70.4332 33.2408 69.3828 31.4021 67.608 30.9158L63.3487 29.7532L68.8503 26.5503C70.4418 25.6238 70.9856 23.5748 70.0639 21.972C69.1423 20.372 67.1013 19.8253 65.5098 20.7519L60.0713 23.9174L61.2134 19.6901C61.6942 17.9031 60.6466 16.0643 58.8719 15.578C57.0943 15.0946 55.2653 16.1478 54.7815 17.9319L51.8762 28.6859L43.335 33.6584L43.3321 23.6876L51.1031 15.8088C52.3998 14.4938 52.3912 12.3729 51.0831 11.0722C49.775 9.76868 47.6653 9.77729 46.3716 11.0924L43.3317 14.1744V7.8666C43.3346 6.01632 41.8461 4.51419 40.0056 4.50838C38.1651 4.50548 36.671 6.00179 36.6652 7.85217V14.1744L33.6253 11.0925C32.3315 9.77739 30.222 9.76297 28.9138 11.0637C27.6056 12.3644 27.5913 14.4851 28.8852 15.8003L28.8937 15.8089L36.6648 23.6877V33.6585L28.1236 28.686L25.2182 17.932C24.7374 16.145 22.9084 15.0889 21.1308 15.5724C19.3531 16.0558 18.3027 17.8946 18.7836 19.6816C18.7836 19.6845 18.7836 19.6873 18.7865 19.6902L19.9286 23.9175L14.49 20.752C12.8985 19.8255 10.8577 20.3722 9.93595 21.9721C9.01431 23.5721 9.55815 25.6238 11.1496 26.5504L16.6482 29.7533L12.3889 30.9159C10.6113 31.4022 9.56373 33.2409 10.0475 35.028C10.5312 36.8151 12.3602 37.8682 14.1378 37.3819L24.769 34.4784L33.3475 39.471L24.6833 44.5155L14.1379 41.635C12.3603 41.1487 10.5313 42.2048 10.0476 43.9889C9.56383 45.776 10.6143 47.6148 12.389 48.1011L16.5624 49.2406L11.1497 52.3916C9.55536 53.3153 9.00863 55.3641 9.92738 56.967H9.92708L9.92718 56.9669Z" fill="#BE96FF"/>
</g>
<defs>
<clipPath id="clip0_4081_1176">
<rect width="70" height="79" fill="white" transform="translate(5)"/>
</clipPath>
</defs>
</svg>
