<svg width="80" height="80" viewBox="0 0 80 80" fill="none" xmlns="http://www.w3.org/2000/svg">
<g clip-path="url(#clip0_4081_1124)">
<path d="M40 72C39.0099 72 38.0767 71.5729 37.4395 70.8282L3.76801 31.4598L3.75358 31.4423C3.73126 31.4151 3.70984 31.3878 3.6887 31.3594C3.64923 31.3084 3.61647 31.2625 3.58843 31.2221C3.57355 31.2011 3.55186 31.1702 3.52636 31.1317C3.5093 31.1066 3.49288 31.0814 3.47691 31.0557L3.46049 31.0294L3.44488 31.0026C3.40214 30.9297 3.37029 30.8667 3.34615 30.8165C3.32193 30.77 3.2938 30.7128 3.26412 30.6437C3.21993 30.5411 3.1908 30.4559 3.17402 30.4054C3.15759 30.3598 3.1379 30.3017 3.11794 30.2299C3.08718 30.1177 3.06313 30.0083 3.04471 29.8986C3.04317 29.8906 3.0331 29.8323 3.0331 29.8323L3.02747 29.7896C3.00833 29.6447 2.99907 29.4962 2.9998 29.3482C3.00025 29.2783 3.00361 29.2189 3.00724 29.1733C3.01132 29.0972 3.01822 29.0081 3.03319 28.9045C3.04362 28.832 3.05569 28.7724 3.0654 28.7272C3.07602 28.6739 3.0958 28.5779 3.12847 28.4655C3.14761 28.4005 3.16667 28.344 3.18708 28.2876C3.20024 28.2502 3.22129 28.1922 3.2496 28.1233C3.27147 28.0675 3.29525 28.0134 3.32129 27.9598C3.34053 27.9202 3.35913 27.8846 3.3761 27.8537C3.39207 27.8223 3.41085 27.787 3.43308 27.7479L14.6667 8.64179C15.2621 7.62909 16.3717 7 17.5625 7H62.4378C62.8804 7 63.312 7.08447 63.7208 7.25119C64.3963 7.52751 64.9682 8.02081 65.3333 8.64117L76.5524 27.7235C76.5807 27.7716 76.6042 27.8155 76.6231 27.8528C76.6391 27.8817 76.6566 27.915 76.6749 27.9523L76.6914 27.9865C76.7113 28.029 76.7298 28.0716 76.7472 28.1155C76.7791 28.1923 76.8013 28.2548 76.8135 28.2895L76.8179 28.3019C76.838 28.3579 76.8559 28.4121 76.8717 28.4667C76.9003 28.5652 76.9194 28.6521 76.9332 28.721C76.9438 28.7698 76.9562 28.8311 76.9669 28.9058C76.9826 29.0138 76.9895 29.1081 76.9934 29.1838C76.9965 29.2265 76.9995 29.2813 76.9999 29.3453C77.0011 29.4948 76.9915 29.6456 76.9717 29.7938L76.9562 29.8982L76.9522 29.9166C76.934 30.0219 76.9109 30.1256 76.8831 30.2262L76.8761 30.2508C76.8585 30.312 76.8413 30.3622 76.8271 30.4018C76.8105 30.4519 76.7798 30.541 76.7357 30.6433C76.7059 30.7129 76.6778 30.7698 76.655 30.8137C76.6288 30.8683 76.5943 30.9362 76.5472 31.0156C76.5247 31.0535 76.5012 31.0906 76.4762 31.1276C76.4506 31.1665 76.4296 31.1963 76.4172 31.214C76.3914 31.2514 76.354 31.3045 76.3064 31.3657C76.2782 31.4031 76.2495 31.4388 76.2195 31.4741L42.5607 70.8279C41.9226 71.573 40.9896 71.9998 39.9999 71.9998L40 72Z" fill="#F3F1F1"/>
<path d="M24.1032 19.2966L28.7812 27.2534L38.1376 11.3396H19.425L24.1032 19.2966Z" fill="#9FF0FD"/>
<path d="M8.2063 28.3094H26.9186L17.5627 12.3957L8.2063 28.3094Z" fill="#9FF0FD"/>
<path d="M57.7597 20.3527L53.0814 28.3094H71.794L62.4378 12.3957L57.7597 20.3527Z" fill="#9FF0FD"/>
<path d="M46.5409 19.2966L51.219 27.2534L60.5752 11.3396H41.8628L46.5409 19.2966Z" fill="#9FF0FD"/>
<path d="M30.644 28.3094H49.3566L40.0002 12.3957L30.644 28.3094Z" fill="#9FF0FD"/>
<path d="M27.9655 30.4216H8.65112L37.6227 64.2946L27.9655 30.4216Z" fill="#9FF0FD"/>
<path d="M52.0346 30.4216L42.3774 64.2946L71.349 30.4216H52.0346Z" fill="#9FF0FD"/>
<path d="M49.8013 30.4216H30.1992L40.0002 64.7992L49.8013 30.4216Z" fill="#9FF0FD"/>
<path d="M74.5784 29.9071C74.5813 29.9025 74.585 29.8982 74.5877 29.8934C74.5995 29.8736 74.6081 29.8529 74.6185 29.8325C74.6275 29.8143 74.6376 29.7968 74.6456 29.778C74.658 29.7494 74.6677 29.7199 74.6774 29.6903C74.6826 29.6746 74.6891 29.6588 74.6938 29.643C74.7054 29.601 74.714 29.5584 74.7203 29.5156C74.7207 29.5115 74.722 29.5073 74.7225 29.5032C74.7289 29.4557 74.7318 29.4082 74.7313 29.3606C74.7313 29.3463 74.7293 29.3321 74.7286 29.3175C74.7272 29.2843 74.7254 29.251 74.7206 29.2179C74.7181 29.2001 74.7135 29.1828 74.7099 29.1652C74.7042 29.1356 74.6983 29.1061 74.69 29.0771C74.6845 29.0585 74.6774 29.0403 74.671 29.022C74.6613 28.9944 74.6514 28.967 74.6392 28.9401C74.6363 28.9332 74.6344 28.926 74.6313 28.9194C74.6252 28.907 74.6174 28.8961 74.611 28.8837C74.6029 28.8683 74.5965 28.8525 74.5877 28.8373L63.3691 9.75563C63.2488 9.5514 63.0653 9.39636 62.8506 9.3085C62.7217 9.25601 62.5818 9.22768 62.4378 9.22768H17.5626C17.1782 9.22768 16.8233 9.42897 16.6313 9.75563L5.4123 28.8373C5.40368 28.8524 5.39714 28.8683 5.38916 28.8837C5.38281 28.8961 5.37482 28.907 5.36892 28.9194C5.36557 28.926 5.36384 28.9332 5.36094 28.9401C5.34896 28.967 5.3388 28.9944 5.32918 29.022C5.32264 29.0403 5.31575 29.0586 5.31021 29.0771C5.30177 29.1061 5.29588 29.1357 5.28998 29.1652C5.28662 29.1827 5.28199 29.2001 5.27945 29.2179C5.27464 29.251 5.27292 29.2843 5.27147 29.3175C5.27065 29.332 5.26856 29.3462 5.26856 29.3606C5.26838 29.4082 5.2711 29.4557 5.27737 29.5032C5.278 29.5073 5.27945 29.5115 5.27991 29.5156C5.28626 29.5584 5.29488 29.601 5.3064 29.643C5.31085 29.6589 5.31738 29.6746 5.32264 29.6903C5.33254 29.7199 5.34197 29.7493 5.3544 29.778C5.36239 29.7968 5.37246 29.8143 5.38181 29.8325C5.39215 29.853 5.40077 29.8736 5.4123 29.8934C5.4152 29.8982 5.41883 29.9025 5.42173 29.9071C5.43244 29.9246 5.44469 29.9414 5.45667 29.9583C5.47309 29.9821 5.4897 30.0056 5.50785 30.028C5.51229 30.0333 5.51565 30.0391 5.5201 30.0446L39.1767 69.3953C39.3811 69.6343 39.6824 69.7723 40.0001 69.7723C40.3178 69.7723 40.6192 69.6342 40.8238 69.3953L74.48 30.0446C74.4846 30.0392 74.488 30.0334 74.4924 30.028C74.5105 30.0056 74.5272 29.9821 74.5436 29.9583C74.5554 29.9414 74.5678 29.9246 74.5785 29.9071H74.5784ZM49.3565 28.3094H30.6439L40.0001 12.3956L49.3565 28.3094ZM49.8012 30.4216L40 64.7992L30.199 30.4216H49.8012ZM27.9656 30.4216L37.6227 64.2947L8.6512 30.4216H27.9656ZM52.0346 30.4216H71.349L42.3774 64.2947L52.0346 30.4216ZM53.0814 28.3094L57.7597 20.3526L62.4378 12.3956L71.794 28.3094H53.0814ZM60.5751 11.3396L51.219 27.2534L46.5409 19.2966L41.8629 11.3396H60.5751ZM28.7812 27.2534L24.1032 19.2966L19.4251 11.3396H38.1377L28.7813 27.2534H28.7812ZM26.9185 28.3094H8.2062L17.5626 12.3957L26.9185 28.3095V28.3094Z" fill="#0B0A0E"/>
</g>
<defs>
<clipPath id="clip0_4081_1124">
<rect width="74" height="65" fill="white" transform="translate(3 7)"/>
</clipPath>
</defs>
</svg>
