<svg width="80" height="80" viewBox="0 0 80 80" fill="none" xmlns="http://www.w3.org/2000/svg">
<g clip-path="url(#clip0_4081_1054)">
<path fill-rule="evenodd" clip-rule="evenodd" d="M30.8213 78.9997C29.01 78.9997 27.591 77.5628 27.591 75.7285C27.591 73.8943 29.0102 72.4573 30.8219 72.4573H36.7505V48.2381L7.85547 16.5903C6.98418 15.6346 6.75623 14.2494 7.2738 13.0604C7.79129 11.8716 8.9565 11.1034 10.2423 11.1034H45.9291V7.4315C45.9291 6.26573 46.5514 5.17982 47.5532 4.59757L54.6767 0.450561C55.1845 0.155311 55.7496 -0.000427246 56.3116 -0.000427246C57.7621 -0.000427246 59.0454 1.01586 59.4322 2.47108C59.8127 3.90282 59.2051 5.36765 57.9202 6.11615L52.4158 9.32039V11.1033H69.7575C71.0433 11.1033 72.2085 11.8715 72.7259 13.0604C73.2435 14.2495 73.0156 15.6346 72.1452 16.5891L43.2491 48.2379V72.4571H49.1778C50.9895 72.4571 52.4086 73.894 52.4086 75.7283C52.4086 77.5625 50.9897 78.9994 49.1783 78.9994H30.8212L30.8213 78.9997Z" fill="#F3F1F1"/>
<path fill-rule="evenodd" clip-rule="evenodd" d="M70.4913 15.0556C71.0766 14.4137 70.6235 13.37 69.7577 13.37H50.1688V8.01218L56.7965 4.15408C57.9314 3.49296 56.9383 1.7521 55.8004 2.41358L48.6755 6.5614C48.3665 6.74098 48.1766 7.07304 48.1766 7.43183V13.37H10.2424C9.3766 13.37 8.92357 14.4137 9.50883 15.0556L38.9979 47.354V74.7239H30.822C29.5103 74.7239 29.5109 76.7337 30.8214 76.7337H49.1785C50.489 76.7337 50.4896 74.7239 49.1779 74.7239H41.0021V47.354L70.4911 15.0556H70.4913Z" fill="#0B0A0E"/>
<path fill-rule="evenodd" clip-rule="evenodd" d="M58.1272 25.6301C52.4355 26.1747 46.0151 26.0303 39.7988 24.699C32.0502 23.0396 24.8429 23.4278 20.384 23.9871L40.006 45.478L58.1272 25.63V25.6301Z" fill="#D000FF"/>
<path fill-rule="evenodd" clip-rule="evenodd" d="M24.3727 15.3798H12.5253L18.4355 21.8528C19.0548 21.9866 20.4409 21.9927 21.9219 21.7959C26.5478 21.3502 33.1592 21.2225 40.2126 22.7331C48.4437 24.496 56.1313 23.9184 60.1897 23.3714L67.4866 15.3799L24.3727 15.3798Z" fill="#F3F1F1"/>
</g>
<defs>
<clipPath id="clip0_4081_1054">
<rect width="66" height="79" fill="white" transform="translate(7)"/>
</clipPath>
</defs>
</svg>
