<svg width="80" height="80" viewBox="0 0 80 80" fill="none" xmlns="http://www.w3.org/2000/svg">
<g clip-path="url(#clip0_4081_1040)">
<path fill-rule="evenodd" clip-rule="evenodd" d="M38.6826 76C37.2738 76 35.9923 75.7711 34.7651 75.3001C25.0774 71.5999 17.7552 65.5202 13.5936 57.7192C11.7011 54.1717 10.5419 50.4121 10.1484 46.545C9.76459 42.7726 10.1248 39.087 11.2191 35.5904C12.6286 31.0866 15.2499 27.221 18.7995 24.4114C22.6117 21.394 27.3541 19.7629 32.537 19.682C30.7049 14.0437 28.1461 9.91313 28.02 9.71116C27.3661 8.66408 27.3204 7.33636 27.9002 6.24548C28.4823 5.15028 29.5933 4.46992 30.7995 4.46992C30.9651 4.46992 31.1326 4.4828 31.2975 4.50827L37.0024 5.40817C38.0299 5.57095 38.7238 6.14717 39.3362 7.01023C41.6598 5.08938 44.5933 4 47.637 4C49.9409 4 52.2153 4.62575 54.2145 5.80949C55.2383 6.41484 55.8739 7.54641 55.8719 8.76182C55.8671 12.3891 54.4907 15.7939 51.9963 18.3483C51.5132 18.8431 50.9991 19.2947 50.4583 19.7014C58.5631 21.181 65.4785 27.6977 67.9119 36.5543C69.9793 44.0253 69.0893 51.5952 65.3368 58.4412C63.1831 62.3705 60.0821 65.9707 56.369 68.8528C52.6931 71.7059 48.3873 73.8797 43.9171 75.1391C42.4064 75.5648 40.6028 76 38.6826 76ZM32.2916 26.4594C28.318 26.5677 24.7951 27.9214 22.0762 30.391C19.3947 32.8267 17.6144 36.1848 16.9279 40.1024C15.2021 49.9507 20.7629 62.6826 37.0765 68.9262C37.5482 69.1071 38.0746 69.1948 38.687 69.1948C39.8312 69.1948 41.0883 68.8836 42.167 68.5793C45.8212 67.5493 49.3412 65.7763 52.3468 63.4517C55.356 61.1244 57.8537 58.2392 59.5697 55.108C62.4372 49.8755 63.1205 44.1018 61.5456 38.4111C60.5278 34.7206 58.5061 31.5975 55.6985 29.3775C53.0985 27.3219 49.9702 26.1899 46.8896 26.1899C43.6195 26.1899 40.6414 27.4308 38.277 29.7785C35.5168 32.5192 33.6773 36.7408 32.9576 41.9865C32.7223 43.7029 31.3834 44.9018 29.7017 44.9018C28.7149 44.9018 27.7871 44.4736 27.156 43.7271C26.5342 42.9914 26.2672 42.036 26.4042 41.0371C27.3402 34.2017 29.7074 29.5728 32.2915 26.4595L32.2916 26.4594ZM42.5511 13.2594C42.8721 13.9925 43.1765 14.7291 43.4631 15.4652C45.9813 15.1621 48.0933 13.3611 48.9016 10.9289C48.4879 10.8453 48.0656 10.8032 47.6368 10.8032C45.6476 10.8032 43.7834 11.7223 42.5511 13.2594Z" fill="#F3F1F1"/>
<path fill-rule="evenodd" clip-rule="evenodd" d="M38.6828 73.6504C37.6419 73.6504 36.5976 73.4952 35.5649 73.0989C15.8137 65.555 9.46132 48.8808 13.3954 36.3099C16.0156 27.9377 23.7624 20.935 35.6265 22.1704C33.799 14.6764 30.1095 8.70686 29.9435 8.44126C29.4686 7.68083 30.0908 6.69812 30.9588 6.83186L36.656 7.73055C37.3518 7.84079 37.8298 8.8796 38.8667 10.8744C42.14 6.33036 48.2638 4.99719 53.0736 7.8453C53.3911 8.03308 53.5867 8.38101 53.5862 8.75761C53.5779 14.9739 48.6775 19.9832 42.5994 19.9592C42.818 20.6754 43.0251 21.4118 43.2146 22.1653C44.0738 21.9614 44.9289 21.833 45.7683 21.7745C54.7135 21.151 63.0866 27.6367 65.7122 37.1927C70.2696 53.6619 58.5511 68.58 43.313 72.873C41.8131 73.2956 40.2519 73.6502 38.6828 73.6502V73.6504ZM39.9329 13.0406C40.573 14.4165 41.2579 16.0326 41.8933 17.8214C46.8223 18.2887 51.1741 14.4628 51.5186 9.37753C47.3177 7.2688 42.2289 8.88703 39.9329 13.0406ZM37.8027 22.4813C38.67 22.6394 39.5571 22.8392 40.4642 23.0847C40.7259 22.9705 40.9893 22.864 41.2526 22.7648C39.6601 16.4011 36.7319 11.174 35.8808 9.73665L32.7705 9.2453C34.1665 11.8491 36.536 16.8039 37.8027 22.4813ZM36.9193 24.4544C36.8342 24.4518 36.7507 24.4381 36.6708 24.4143C35.3195 24.2025 34.0327 24.1027 32.8113 24.1027C10.2117 24.1027 5.01162 59.1613 36.2792 71.1281C38.3254 71.9128 40.6088 71.4554 42.7723 70.8451C56.9248 66.856 67.9813 53.0778 63.7445 37.7682C58.8525 20.0294 34.0674 17.0743 30.6945 41.6583C30.5063 43.0305 28.4798 42.7362 28.668 41.3652C29.8371 32.8277 33.4595 27.512 37.7263 24.6002C37.4549 24.5473 37.1858 24.4988 36.9194 24.4544H36.9193Z" fill="#0B0A0E"/>
<path fill-rule="evenodd" clip-rule="evenodd" d="M36.2791 71.1281C38.3254 71.9129 40.6087 71.4555 42.7722 70.8451C56.9247 66.856 67.9812 53.0779 63.7444 37.7683C58.8524 20.0294 34.0673 17.0744 30.6944 41.6584C30.5062 43.0306 28.4797 42.7363 28.6679 41.3653C29.837 32.8278 33.4594 27.512 37.7262 24.6003C37.4548 24.5474 37.1857 24.4989 36.9193 24.4545C36.8342 24.4519 36.7507 24.4382 36.6708 24.4144C35.3195 24.2026 34.0327 24.1027 32.8113 24.1027C10.2117 24.1027 5.01162 59.1613 36.2792 71.1281H36.2791Z" fill="#FF7455"/>
<path fill-rule="evenodd" clip-rule="evenodd" d="M41.8933 17.8214C46.8223 18.2887 51.1741 14.4627 51.5186 9.37752C47.3177 7.26879 42.2289 8.88701 39.9329 13.0406C40.573 14.4165 41.2579 16.0326 41.8933 17.8214Z" fill="#02B940"/>
<path fill-rule="evenodd" clip-rule="evenodd" d="M41.2525 22.7649C39.66 16.4012 36.7318 11.1741 35.8807 9.73671L32.7704 9.24536C34.1664 11.8492 36.5359 16.8039 37.8026 22.4813C38.6699 22.6394 39.557 22.8392 40.4641 23.0847C40.7258 22.9705 40.9892 22.8641 41.2525 22.7649Z" fill="#AE5C32"/>
</g>
<defs>
<clipPath id="clip0_4081_1040">
<rect width="59" height="72" fill="white" transform="translate(10 4)"/>
</clipPath>
</defs>
</svg>
