<svg width="80" height="80" viewBox="0 0 80 80" fill="none" xmlns="http://www.w3.org/2000/svg">
<g clip-path="url(#clip0_4081_1150)">
<path d="M43.6648 76C42.4319 76 41.2069 75.7757 40.0104 75.3319C38.8431 75.7757 37.6073 76 36.3239 76C33.0825 76 30.0659 74.4496 27.8299 71.6344C25.7076 68.9625 24.5388 65.4351 24.5388 61.7022C24.5388 61.1015 24.6092 60.4307 24.7496 59.6912C24.0785 60.0636 23.4574 60.3377 22.872 60.5233C21.1994 61.0681 19.4831 61.3444 17.7707 61.3444C15.0654 61.3444 12.5171 60.657 10.4016 59.3564C8.13457 57.9628 6.52518 55.9661 5.74715 53.5821L5.73756 53.5527L5.72877 53.523C5.35612 52.266 5.20614 51.0373 5.27992 49.8558C4.49571 48.8892 3.90881 47.8311 3.49796 46.6471L3.48694 46.6152L3.4769 46.5832C2.49896 43.4716 3.03656 40.0961 4.99073 37.0785C6.84969 34.2076 9.79479 31.9975 13.2849 30.8535C13.8857 30.6469 14.5635 30.4931 15.3287 30.3907C14.8159 29.9139 14.3611 29.4299 13.9922 28.9464L13.9683 28.9151L13.9455 28.883C11.7876 25.841 10.6866 22.2915 10.8453 18.8881C11.0129 15.2967 12.5459 12.2558 15.1624 10.3226C16.1354 9.57624 17.2632 9.03561 18.5261 8.7089C19.2116 7.60521 20.0899 6.68469 21.1475 5.96334C22.8895 4.67866 25.0075 4 27.2767 4C29.3975 4 31.5965 4.59418 33.6358 5.7184C35.6848 6.84795 37.5346 8.49689 38.9852 10.4871L39.0126 10.5254C39.3688 11.0361 39.6952 11.63 39.9938 12.2778C40.2925 11.6297 40.6189 11.0358 40.9747 10.5254L41.0023 10.4868C43.9639 6.42491 48.348 4 52.73 4C55.0154 4 57.1558 4.68354 58.9206 5.97682C59.941 6.7073 60.7913 7.62068 61.4593 8.70167C62.718 9.02069 63.8276 9.5558 64.8269 10.3228C67.4478 12.2599 68.9883 15.2984 69.1653 18.8818C69.3343 22.3028 68.2214 25.8596 66.0316 28.8969C65.6812 29.381 65.2334 29.8812 64.6892 30.397C65.445 30.5001 66.1176 30.6524 66.7017 30.8532C70.7178 32.1694 74.0128 34.8963 75.7446 38.3375C77.0974 41.0259 77.3673 43.9626 76.5042 46.6069L76.4907 46.647C76.0808 47.8283 75.4956 48.8842 74.714 49.8484C74.8076 51.126 74.6462 52.4029 74.2348 53.5982C72.7033 58.3093 68.0162 61.3521 62.287 61.3524H62.2857C60.5577 61.3523 58.8174 61.0729 57.1133 60.522C56.541 60.3359 55.9181 60.0536 55.246 59.6763C55.3754 60.3841 55.4498 61.0671 55.4498 61.7021C55.4498 65.4349 54.2807 68.9623 52.158 71.6344C49.9218 74.4496 46.9055 75.9999 43.6647 75.9999L43.6648 76Z" fill="#F3F1F1"/>
<path d="M40.1588 18.6648C38.8314 25.8323 38.4344 34.473 39.4294 37.3527C36.9724 35.5441 28.6745 33.1999 21.5726 32.3291C27.8787 35.8122 35.9109 38.8261 38.8978 38.8261C36.509 40.5676 31.7279 47.8021 28.6745 54.4332C33.919 49.4096 39.23 42.6445 40.1587 39.764C41.0889 42.6445 46.3999 49.4096 51.7109 54.4332L41.4211 38.8261C44.4081 38.8261 52.5067 35.8122 58.8127 32.3291C51.6429 33.1999 43.3449 35.544 40.956 37.3527C41.8846 34.473 41.5524 25.8322 40.1586 18.6648H40.1588Z" fill="#0B0A0E"/>
<path d="M38.8315 38.8626C36.63 40.4676 32.224 47.1346 29.41 53.2456C26.7186 55.7141 24.1497 57.7516 22.1915 58.3687C15.9514 60.4054 9.52753 57.9369 7.87565 52.8748C7.50972 51.6406 7.38726 50.3445 7.63074 49.1095C6.71367 48.1835 6.0416 47.1346 5.61292 45.8996C4.02227 40.8383 7.75319 35.0363 13.9934 32.9987C15.9515 32.3198 19.2552 32.3816 22.8651 32.8752C28.6766 36.0851 36.0788 38.8625 38.8314 38.8625L38.8315 38.8626Z" fill="#FC8898"/>
<path d="M39.3213 37.5047C37.0571 35.838 29.4099 33.6777 22.8652 32.8752C19.6838 31.0849 16.9924 29.1717 15.7677 27.5668C11.9143 22.1347 12.219 15.2831 16.5025 12.1349C17.5421 11.3324 18.7653 10.8999 19.9885 10.7153C20.5397 9.54204 21.3357 8.55495 22.4365 7.81352C26.6573 4.66535 33.2649 6.45566 37.1795 11.8267C38.3415 13.4927 39.3213 16.7026 39.9934 20.2825C38.7702 26.8877 38.4043 34.8508 39.3212 37.5047L39.3213 37.5047Z" fill="#FC8898"/>
<path d="M64.2192 27.5668C63.0572 29.1717 60.3657 31.0849 57.1845 32.8752C50.577 33.6777 42.9298 35.838 40.7283 37.5048C41.5842 34.8509 41.278 26.8878 39.9935 20.2826C40.6671 16.7027 41.6454 13.4928 42.8074 11.8268C46.7235 6.45575 53.3311 4.66545 57.6132 7.81361C58.6527 8.55504 59.4488 9.54214 59.9985 10.7154C61.283 10.9 62.4465 11.3325 63.486 12.135C67.7681 15.2832 68.1355 22.1348 64.2194 27.5669L64.2192 27.5668Z" fill="#FC8898"/>
<path d="M74.3754 45.8996C73.9467 47.1346 73.2747 48.1835 72.3561 49.1095C72.601 50.3445 72.5398 51.6405 72.1112 52.8748C70.4593 57.9986 64.0982 60.4054 57.7968 58.3687C55.8999 57.7515 53.2697 55.7141 50.6396 53.2456L41.1569 38.8626C43.9095 38.8626 51.3729 36.0852 57.1844 32.8753C60.7332 32.3818 64.037 32.3199 65.9936 32.9988C72.2337 35.0363 76.0274 40.8383 74.3755 45.8997L74.3754 45.8996Z" fill="#FC8898"/>
<path d="M53.2086 61.7022C53.2086 68.3684 48.925 73.7387 43.6646 73.7387C42.3802 73.7387 41.1569 73.4305 39.9934 72.8745C38.8927 73.4305 37.6694 73.7387 36.3237 73.7387C31.0618 73.7387 26.7798 68.3684 26.7798 61.7022C26.7798 59.6655 27.8805 56.5173 29.41 53.2456C34.2432 48.616 39.1376 42.3815 39.9934 39.7269C40.8507 42.3815 45.7452 48.616 50.6396 53.2456C52.169 56.5173 53.2086 59.6655 53.2086 61.7022Z" fill="#FC8898"/>
<path d="M52.7297 8.61303C54.0655 8.61303 55.2467 8.98361 56.2406 9.71428L56.2541 9.72423L56.2677 9.73399C56.9582 10.2265 57.5044 10.8948 57.8912 11.7205L58.4275 12.8651L59.6697 13.0436C60.6399 13.1831 61.4025 13.4878 62.0695 14.0028L62.0912 14.0195L62.1132 14.0357C63.6087 15.1352 64.4916 16.9378 64.599 19.1115C64.7161 21.4826 63.9125 23.9931 62.3362 26.1807C61.4914 27.3464 59.1414 29.0811 56.0491 30.8213L45.226 36.9122L57.5027 35.2049C59.202 34.9686 60.7372 34.8487 62.0655 34.8487C63.7949 34.8487 64.7439 35.0521 65.2355 35.2227L65.2556 35.2296L65.2759 35.2362C66.7435 35.7155 68.0638 36.4383 69.2 37.3846C70.2556 38.2637 71.109 39.3155 71.6679 40.426C72.2303 41.5436 72.7723 43.2674 72.1684 45.1428C71.8646 46.0085 71.3869 46.762 70.7086 47.4458L69.8257 48.336L70.0706 49.5709C70.2414 50.432 70.1863 51.3055 69.9115 52.097L69.9028 52.1221L69.8947 52.1473C68.9954 54.9368 66.0086 56.7394 62.2856 56.7394C61.0319 56.7394 59.7608 56.534 58.512 56.1304C57.8786 55.9242 55.998 55.0628 52.2269 51.5236L43.3731 43.214L48.5315 54.2488C50.0006 57.3915 50.8777 60.1778 50.8777 61.7022C50.8777 64.3899 50.0654 66.8927 48.5905 68.7495C47.2394 70.4503 45.49 71.387 43.6645 71.387C42.7637 71.387 41.8892 71.1783 40.9911 70.7491L39.965 70.2587L38.9498 70.7715C38.1301 71.1856 37.271 71.387 36.3236 71.387C34.4976 71.387 32.7481 70.4504 31.3972 68.7496C29.9225 66.8931 29.1104 64.3903 29.1104 61.7022C29.1104 61.0096 29.345 58.897 31.5178 54.2488L36.5216 43.5448L27.842 51.5053C24.9557 54.1526 22.8207 55.7065 21.4964 56.1238L21.4852 56.1274L21.474 56.131C20.2537 56.5293 19.0076 56.7312 17.7704 56.7312C15.9045 56.7312 14.1788 56.2767 12.78 55.4168C11.4633 54.6074 10.537 53.4849 10.0993 52.1691C9.82775 51.2382 9.76455 50.3396 9.91659 49.5682L10.1595 48.336L9.27939 47.4472C8.60455 46.7657 8.12826 46.0158 7.82428 45.1556C7.28372 43.3974 7.63594 41.4265 8.81772 39.6016C10.1105 37.6053 12.2033 36.055 14.711 35.2362L14.731 35.2297L14.7508 35.2229C15.243 35.0522 16.1944 34.8487 17.9309 34.8487C19.2653 34.8487 20.8202 34.9689 22.5523 35.2057L34.7556 36.874L24.0005 30.8214C20.899 29.076 18.584 27.3804 17.6378 26.1623C16.092 23.9685 15.3019 21.464 15.4119 19.105C15.5134 16.9288 16.3881 15.1285 17.8748 14.036L17.897 14.0197L17.9188 14.0029C18.5568 13.5103 19.3692 13.1868 20.3334 13.0414L21.5625 12.8558L22.0947 11.7228C22.4884 10.8849 23.0234 10.246 23.7307 9.76972L23.7771 9.73843L23.822 9.70496C24.7933 8.98053 25.9555 8.61321 27.2765 8.6133C30.1487 8.61339 33.2157 10.37 35.2866 13.1993C36.1516 14.4547 37.0543 17.2625 37.7035 20.7206L39.9911 32.9048L42.2834 20.7215C42.9346 17.2604 43.8372 14.4522 44.7003 13.1996C46.7725 10.37 49.847 8.61312 52.7299 8.6133M52.7298 6.26129C49.2163 6.26111 45.4153 8.24996 42.8073 11.8268C41.6453 13.4928 40.667 16.7027 39.9935 20.2826C39.3213 16.7027 38.3416 13.4928 37.1795 11.8268C34.5727 8.25023 30.7715 6.26147 27.2765 6.26129C25.5228 6.26129 23.8467 6.76176 22.4365 7.81353C21.3357 8.55496 20.5397 9.54206 19.9885 10.7153C18.7653 10.8999 17.542 11.3325 16.5025 12.1349C12.2189 15.2831 11.9142 22.1347 15.7677 27.5668C16.9924 29.1717 19.6838 31.0849 22.8651 32.8753C21.1079 32.635 19.4231 32.4971 17.9309 32.4971C16.3575 32.4971 14.9983 32.6504 13.9934 32.9988C7.75319 35.0363 4.02227 40.8384 5.61292 45.8997C6.0416 47.1347 6.71367 48.1836 7.63074 49.1096C7.38726 50.3446 7.50972 51.6406 7.87574 52.8749C9.13426 56.7317 13.1636 59.0831 17.7705 59.0831C19.2102 59.0831 20.7059 58.8537 22.1916 58.3687C24.1497 57.7516 26.7186 55.7142 29.4101 53.2457C27.8807 56.5174 26.7799 59.6656 26.7799 61.7022C26.7799 68.3685 31.062 73.7388 36.3239 73.7388C37.6696 73.7388 38.8928 73.4306 39.9936 72.8745C41.1571 73.4306 42.3803 73.7388 43.6648 73.7388C48.9251 73.7388 53.2087 68.3685 53.2087 61.7022C53.2087 59.6656 52.1692 56.5174 50.6398 53.2457C53.2699 55.7142 55.9001 57.7516 57.797 58.3687C59.3115 58.8583 60.8306 59.0913 62.2859 59.0913C66.8852 59.0913 70.8565 56.7673 72.1114 52.875C72.54 51.6407 72.6013 50.3447 72.3563 49.1097C73.2749 48.1836 73.9469 47.1348 74.3756 45.8997C76.0275 40.8384 72.2338 35.0364 65.9937 32.9989C64.9896 32.6505 63.6304 32.4972 62.0658 32.4972C60.5814 32.4972 58.9123 32.6351 57.1847 32.8754C60.366 31.0851 63.0574 29.1718 64.2194 27.5669C68.1355 22.1348 67.7682 15.2832 63.486 12.135C62.4465 11.3325 61.283 10.9 59.9986 10.7154C59.449 9.54215 58.6528 8.55505 57.6133 7.81362C56.1829 6.76203 54.4925 6.26147 52.7301 6.26138L52.7298 6.26129Z" fill="#0B0A0E"/>
<path d="M45.6046 33.8287C46.5951 33.8287 47.398 33.0186 47.398 32.0192C47.398 31.0199 46.5951 30.2098 45.6046 30.2098C44.6142 30.2098 43.8113 31.0199 43.8113 32.0192C43.8113 33.0186 44.6142 33.8287 45.6046 33.8287Z" fill="#F3F1F1"/>
<path d="M40.6692 38.0876L39.5879 37.0026L45.0633 31.4749L46.1447 32.56L40.6692 38.0876Z" fill="#F3F1F1"/>
<path d="M47.8734 39.3551C48.8639 39.3551 49.6668 38.545 49.6668 37.5456C49.6668 36.5463 48.8639 35.7362 47.8734 35.7362C46.883 35.7362 46.0801 36.5463 46.0801 37.5456C46.0801 38.545 46.883 39.3551 47.8734 39.3551Z" fill="#F3F1F1"/>
<path d="M47.8742 36.7736H40.1285V38.3168H47.8742V36.7736Z" fill="#F3F1F1"/>
<path d="M45.6046 44.8816C46.5951 44.8816 47.398 44.0715 47.398 43.0721C47.398 42.0728 46.5951 41.2627 45.6046 41.2627C44.6142 41.2627 43.8113 42.0728 43.8113 43.0721C43.8113 44.0715 44.6142 44.8816 45.6046 44.8816Z" fill="#F3F1F1"/>
<path d="M45.0633 43.6154L39.5879 38.0876L40.6692 37.0026L46.1447 42.5303L45.0633 43.6154Z" fill="#F3F1F1"/>
<path d="M40.1276 47.1707C41.118 47.1707 41.9209 46.3605 41.9209 45.3612C41.9209 44.3618 41.118 43.5517 40.1276 43.5517C39.1371 43.5517 38.3342 44.3618 38.3342 45.3612C38.3342 46.3605 39.1371 47.1707 40.1276 47.1707Z" fill="#F3F1F1"/>
<path d="M40.8932 37.5451H39.3638V45.3635H40.8932V37.5451Z" fill="#F3F1F1"/>
<path d="M34.6504 44.8816C35.6408 44.8816 36.4437 44.0715 36.4437 43.0721C36.4437 42.0728 35.6408 41.2627 34.6504 41.2627C33.66 41.2627 32.8571 42.0728 32.8571 43.0721C32.8571 44.0715 33.66 44.8816 34.6504 44.8816Z" fill="#F3F1F1"/>
<path d="M35.1907 43.6215L34.1094 42.5243L39.5878 36.9966L40.6691 38.0937L35.1907 43.6215Z" fill="#F3F1F1"/>
<path d="M32.3817 39.3551C33.3722 39.3551 34.1751 38.545 34.1751 37.5456C34.1751 36.5463 33.3722 35.7362 32.3817 35.7362C31.3913 35.7362 30.5884 36.5463 30.5884 37.5456C30.5884 38.545 31.3913 39.3551 32.3817 39.3551Z" fill="#F3F1F1"/>
<path d="M40.1285 36.7736H32.3828V38.3168H40.1285V36.7736Z" fill="#F3F1F1"/>
<path d="M34.6504 33.8287C35.6408 33.8287 36.4437 33.0186 36.4437 32.0192C36.4437 31.0199 35.6408 30.2098 34.6504 30.2098C33.66 30.2098 32.8571 31.0199 32.8571 32.0192C32.8571 33.0186 33.66 33.8287 34.6504 33.8287Z" fill="#F3F1F1"/>
<path d="M39.5878 38.0937L34.1094 32.5659L35.1907 31.4688L40.6691 36.9966L39.5878 38.0937Z" fill="#F3F1F1"/>
<path d="M40.1276 31.5397C41.118 31.5397 41.9209 30.7295 41.9209 29.7302C41.9209 28.7308 41.118 27.9207 40.1276 27.9207C39.1371 27.9207 38.3342 28.7308 38.3342 29.7302C38.3342 30.7295 39.1371 31.5397 40.1276 31.5397Z" fill="#F3F1F1"/>
<path d="M40.8932 29.7328H39.3638V37.5452H40.8932V29.7328Z" fill="#F3F1F1"/>
</g>
<defs>
<clipPath id="clip0_4081_1150">
<rect width="74" height="72" fill="white" transform="translate(3 4)"/>
</clipPath>
</defs>
</svg>
