<svg width="80" height="80" viewBox="0 0 80 80" fill="none" xmlns="http://www.w3.org/2000/svg">
<g clip-path="url(#clip0_4081_1163)">
<path d="M24.8299 75C21.6009 75 18.2656 74.6784 14.9161 74.0441C14.8759 74.0411 14.8309 74.039 14.7825 74.0363C14.3789 74.0135 13.7728 73.9792 13.0414 73.7663C12.7579 73.6837 12.4516 73.6068 12.1273 73.5255C11.6851 73.4145 11.1844 73.2889 10.6604 73.1273C10.5419 73.0906 10.4242 73.0551 10.3076 73.02C8.8712 72.5863 6.90475 71.9927 5.25176 70.1427C4.56463 69.3749 3.53845 67.7706 4.22977 65.538C4.22995 65.536 4.23014 65.5341 4.23033 65.5321C4.26569 65.1995 4.31911 64.6972 4.49036 64.1146C4.99014 62.4156 6.3925 60.8873 8.06336 60.2202C8.95757 59.8634 9.80645 59.7355 10.4263 59.6421C10.5017 59.6308 10.5777 59.6193 10.6499 59.608C10.8797 59.5159 11.2028 59.3917 11.5919 59.2953C12.2474 59.1322 12.8372 59.0838 13.268 59.0484L13.281 59.0472C13.3404 59.0423 13.3995 59.0375 13.4584 59.0322C14.0591 58.9077 16.5479 57.9476 20.2959 55.8109C23.8949 53.7593 26.3478 51.9106 27.225 50.9661C31.3873 43.1536 31.4501 41.6275 31.7063 35.4016C31.7675 33.9115 31.8369 32.2228 31.9695 30.1568C32.0326 29.173 31.6191 26.8606 31.2869 25.0025C30.6475 21.4255 29.9863 17.7271 30.5073 14.7216L30.6177 14.0847L30.917 13.5107C31.8775 11.6697 34.128 8.9721 39.3961 6.57312C42.9338 4.96192 46.8388 4 49.8418 4C50.045 4 50.2472 4.00426 50.4433 4.01268C54.1199 4.17007 58.6665 5.61509 61.8332 6.79949C63.2881 7.34359 64.8141 7.96879 66.1302 8.56011C68.1301 9.45853 68.8906 9.86144 69.5716 10.8537C71.5911 13.8005 71.2548 18.686 70.0719 28.3715C69.7375 31.1084 69.4218 33.6934 69.2968 35.7904C69.1964 37.4767 69.2634 38.2764 69.3054 38.5797C69.8081 39.3827 70.3116 40.1463 70.8002 40.8874C73.4524 44.9103 75.9576 48.7105 75.9617 55.1738C75.9634 55.2192 75.9676 55.2765 75.9715 55.3364C75.9997 55.771 76.0422 56.4271 75.9005 57.1861C75.8837 57.2755 75.8671 57.362 75.8507 57.4464C75.8198 57.6054 75.7831 57.7938 75.7833 57.8304C75.7835 57.8825 75.7898 58.0044 75.795 58.1024C75.8165 58.5198 75.8489 59.1493 75.753 59.8381C75.7172 60.0955 75.6658 60.3238 75.6149 60.5133C75.6244 60.7332 75.6245 60.9999 75.5954 61.3014C75.5234 62.0524 75.3707 62.7569 75.234 63.3487C75.2352 63.3893 75.2366 63.4301 75.2376 63.4575C75.2427 63.6008 75.2472 63.7422 75.2482 63.8807C75.2533 64.5471 75.1597 65.097 75.0977 65.4608C75.0848 65.5359 75.0686 65.6311 75.0621 65.6783C75.0589 65.7958 75.0621 65.9626 75.0652 66.1245C75.0676 66.2531 75.0699 66.3797 75.0708 66.5054C75.0762 67.4638 74.9316 68.3915 74.6413 69.2662C74.2162 70.5446 73.4017 71.5248 72.2855 72.1024C71.2297 72.6486 70.2392 72.6492 69.8163 72.6494C69.7142 72.6518 69.3994 72.7105 69.1694 72.7533C68.5703 72.865 67.8252 73.0038 66.9352 73.0038L66.5998 73.0031C65.993 73.0031 65.364 73.0098 64.7556 73.0163L64.7422 73.0165C64.1088 73.0232 63.4539 73.0301 62.793 73.0301C62.1008 73.0301 61.4887 73.0222 60.9217 73.0059C60.3376 72.9895 59.8757 72.8978 59.5702 72.8372C59.5587 72.835 59.5476 72.8327 59.5368 72.8305C59.5345 72.8305 59.5013 72.8317 59.5013 72.8317C59.3639 72.8365 59.1988 72.842 59.0148 72.842C58.4455 72.842 57.9546 72.7883 57.4704 72.673C57.161 72.5985 56.8973 72.5049 56.693 72.4259C56.0716 72.3427 54.9484 72.0859 53.918 71.1098C52.4755 69.741 52.2341 68.0419 52.2241 66.8919C52.1486 66.9665 52.0705 67.0445 51.9894 67.1256C51.2355 67.8796 50.2032 68.9121 48.641 69.6403C45.6968 71.0133 42.3368 71.9574 39.3724 72.7904L39.2802 72.8163C38.8845 72.9275 38.493 73.0375 38.1079 73.1473C33.7925 74.3766 29.3252 74.9999 24.8301 74.9999L24.8299 75Z" fill="#F3F1F1"/>
<path d="M24.8297 72.6855C21.7272 72.6855 18.5183 72.3738 15.292 71.7592C15.1996 71.7417 15.0665 71.7341 14.9126 71.7254C14.5821 71.7067 14.1708 71.6834 13.6946 71.5449C13.3695 71.4501 13.0421 71.368 12.6957 71.2811C12.2621 71.1723 11.8137 71.0598 11.3495 70.9166C11.2265 70.8786 11.1041 70.8416 10.9828 70.805C9.6821 70.4124 8.20799 69.9674 6.99065 68.605C6.00254 67.5008 6.37128 66.4467 6.49236 66.1002C6.49832 66.0829 6.50539 66.0648 6.51163 66.0445C6.52335 65.9686 6.5334 65.8743 6.54401 65.775C6.5737 65.4953 6.61074 65.1472 6.72336 64.764C7.0208 63.7528 7.92804 62.7679 8.92983 62.368C9.5734 62.1111 10.2121 62.015 10.7757 61.9301C10.955 61.9032 11.1252 61.8776 11.2813 61.8488C11.3238 61.8333 11.3975 61.8037 11.4491 61.7829C11.6419 61.7051 11.8819 61.6084 12.1546 61.5408C12.6267 61.4234 13.0692 61.387 13.4595 61.3548C13.5479 61.3475 13.636 61.3403 13.7234 61.332C14.5048 61.2575 17.419 60.1184 21.4527 57.8189C25.0689 55.7574 28.0604 53.6057 29.1551 52.2853C33.6893 43.8039 33.7625 42.0222 34.031 35.4958C34.0918 34.0168 34.1609 32.3406 34.2914 30.304C34.3724 29.0421 33.9684 26.7823 33.5777 24.5969C32.9734 21.2164 32.3484 17.7208 32.8002 15.1146L32.8492 14.8314L32.9823 14.5763C34.4929 11.6808 38.2559 9.63749 40.3644 8.67733C43.6137 7.19768 47.1566 6.31436 49.8419 6.31436C50.0118 6.31436 50.1807 6.31788 50.3435 6.32482C53.7133 6.46916 58.0065 7.84057 61.0145 8.96562C62.4245 9.49297 63.9013 10.098 65.1727 10.6691C67.1747 11.5686 67.3726 11.7541 67.65 12.1583C69.2795 14.536 68.7793 19.764 67.7622 28.092C67.4232 30.8663 67.1033 33.4868 66.9742 35.6532C66.793 38.6969 67.1031 39.4223 67.1465 39.5075C67.7252 40.4433 68.2994 41.3142 68.8547 42.1565C71.4198 46.0469 73.635 49.4069 73.6351 55.1884C73.6351 55.2596 73.6422 55.3693 73.6497 55.4854C73.6729 55.8429 73.7017 56.2879 73.613 56.7632C73.5969 56.8494 73.5807 56.9327 73.5649 57.0139C73.4968 57.3646 73.4556 57.5763 73.4567 57.8396C73.4572 57.9459 73.4641 58.0799 73.4714 58.2215C73.4904 58.5899 73.514 59.0485 73.4483 59.5199C73.4076 59.8141 73.328 60.0546 73.2754 60.2139C73.2718 60.2249 73.2677 60.2373 73.2636 60.2495C73.2655 60.2728 73.2677 60.2978 73.2695 60.3194C73.2862 60.5106 73.309 60.7726 73.2793 61.0804C73.2124 61.7767 73.0544 62.4537 72.9149 63.0509C72.8981 63.136 72.9067 63.3782 72.9123 63.5386C72.9166 63.66 72.9207 63.7803 72.9216 63.8982C72.9252 64.3614 72.8576 64.7571 72.8034 65.0752C72.7714 65.2628 72.7437 65.425 72.7385 65.554C72.7309 65.7387 72.7348 65.9475 72.739 66.1687C72.7412 66.2866 72.7434 66.4044 72.7443 66.5213C72.7482 67.2255 72.6431 67.9043 72.432 68.5405C72.198 69.2439 71.7877 69.7509 71.212 70.0488C70.6604 70.3342 70.1105 70.3346 69.815 70.3348C69.5098 70.3351 69.1536 70.4015 68.7411 70.4783C68.2106 70.5771 67.6093 70.6891 66.9353 70.6891C66.9353 70.6891 66.7037 70.6885 66.5999 70.6885C65.9763 70.6885 65.3364 70.6953 64.7174 70.702C64.0881 70.7087 63.4376 70.7155 62.793 70.7155C62.1235 70.7155 61.5334 70.7079 60.9888 70.6923C60.5996 70.6814 60.281 70.618 60.0249 70.5672C59.8756 70.5376 59.7467 70.5118 59.6715 70.5118C59.5881 70.5125 59.5057 70.5155 59.4225 70.5183C59.3 70.5225 59.1611 70.5273 59.0147 70.5273C58.6328 70.5273 58.3142 70.4939 58.0119 70.4218C57.7742 70.3646 57.5672 70.2817 57.3844 70.2084C57.3465 70.1933 57.2959 70.173 57.2568 70.1581C57.2451 70.1571 57.2336 70.1561 57.2223 70.1552C56.9122 70.1273 56.186 70.062 55.5226 69.4335C54.4476 68.4135 54.5258 67.0231 54.5725 66.1922C54.5804 66.0516 54.5879 65.9189 54.5879 65.8236C54.5879 64.8317 54.7596 64.0192 54.9492 63.2897C54.9486 63.2429 54.9441 63.1647 54.9406 63.1045C54.9317 62.9527 54.9208 62.7636 54.9283 62.5496C53.3888 63.378 51.6996 64.3301 51.3148 64.583C50.9813 64.8517 50.6693 65.1637 50.3397 65.4933C49.6383 66.1947 48.8433 66.9897 47.6536 67.5444C44.8816 68.8371 41.6187 69.754 38.7399 70.5629C38.3099 70.6838 37.8849 70.8032 37.4673 70.9221C33.3601 72.0922 29.1083 72.6854 24.8301 72.6854L24.8297 72.6855Z" fill="#0B0A0E"/>
<path d="M71.7734 55.1887C71.7733 48.7804 68.7833 45.6914 65.557 40.4717C63.4795 37.1109 68.6886 16.9617 66.1124 13.2026C65.9564 12.9753 56.2095 8.42949 50.2632 8.17498C45.3996 7.96676 36.691 11.4869 34.6342 15.4295C33.9347 19.4655 36.3684 26.9974 36.1489 30.422C35.4279 41.6587 36.5827 42.3592 30.7177 53.3054C28.059 56.7368 16.7428 62.9044 13.9014 63.1753C13.4711 63.2164 13.0245 63.2333 12.6044 63.3378C12.3016 63.4128 11.9456 63.6072 11.683 63.6578C10.9955 63.7901 10.2553 63.8343 9.62327 64.0865C9.1597 64.2715 8.64763 64.8155 8.50998 65.2834C8.40761 65.6321 8.405 65.9988 8.34665 66.3562C8.26735 66.8442 8.00965 66.9591 8.38174 67.375C9.3423 68.4499 10.5744 68.7389 11.9008 69.1481C12.6691 69.3851 13.4342 69.5396 14.2172 69.7677C14.6972 69.9074 15.1488 69.8468 15.642 69.9407C22.8118 71.3065 29.8855 71.1559 36.9544 69.1422C40.1764 68.2243 43.8343 67.2805 46.8633 65.8678C48.2663 65.2137 49.006 64.045 50.1913 63.1056C50.6037 62.7789 57.0628 59.1815 57.1349 59.4606C57.3219 60.1874 56.9684 60.8542 56.9831 61.5695C56.9908 61.9438 56.8465 62.111 56.8013 62.4523C56.7467 62.865 56.8725 63.2906 56.7657 63.6972C56.5776 64.4126 56.4491 65.0576 56.4489 65.8242C56.4487 66.5395 56.2369 67.5529 56.8059 68.0929C57.0761 68.3488 57.3194 68.279 57.6567 68.3457C57.8758 68.3887 58.2283 68.5692 58.4446 68.6213C58.8245 68.7117 59.258 68.6632 59.6558 68.6606C60.1601 68.657 60.5505 68.8278 61.0422 68.8417C62.9973 68.8978 64.9619 68.83 66.9181 68.8377C67.9181 68.8417 68.8448 68.4841 69.8132 68.4833C70.2812 68.483 70.5004 68.4525 70.6642 67.9601C70.8188 67.4943 70.8853 67.0204 70.8826 66.5335C70.8804 66.1837 70.864 65.8277 70.8784 65.4782C70.9006 64.9391 71.0643 64.4646 71.0602 63.9137C71.0566 63.4964 71.0057 63.0427 71.1002 62.6384C71.2272 62.0942 71.3708 61.4803 71.4261 60.9044C71.4543 60.6113 71.3691 60.307 71.408 60.0149C71.4428 59.7508 71.568 59.5273 71.6042 59.266C71.6664 58.8197 71.5971 58.2998 71.5949 57.8471C71.5929 57.3167 71.6886 56.9291 71.7825 56.4255C71.8526 56.0495 71.7733 55.574 71.7733 55.1888L71.7734 55.1887Z" fill="#0D74C7"/>
<path d="M71.7586 54.4608C71.1879 54.3968 70.616 54.3403 70.0426 54.2968C67.8366 54.1291 65.621 54.1948 63.4182 54.3942C59.8764 55.0374 56.4305 56.0457 53.0697 57.3318C49.1483 59.0857 45.4087 62.8364 41.6469 64.9479C30.0172 71.4747 10.7663 68.2335 9.33179 68.1643C10.103 68.6367 10.9788 68.8638 11.9008 69.1481C12.669 69.3851 13.4341 69.5396 14.2171 69.7678C14.6971 69.9074 15.1487 69.8468 15.6419 69.9407C22.8117 71.3066 29.8855 71.1559 36.9543 69.1422C40.1763 68.2243 43.8342 67.2805 46.8632 65.8678C48.2662 65.2137 49.006 64.045 50.1912 63.1056C50.6037 62.7789 57.0627 59.1815 57.1349 59.4606C57.3218 60.1874 56.9684 60.8542 56.983 61.5695C56.9907 61.9438 56.8464 62.111 56.8012 62.4523C56.7466 62.865 56.8724 63.2906 56.7657 63.6972C56.5776 64.4126 56.449 65.0576 56.4488 65.8242C56.4487 66.5395 56.2368 67.5529 56.8059 68.0929C57.076 68.3488 57.3193 68.279 57.6566 68.3457C57.8757 68.3887 58.2282 68.5692 58.4445 68.6213C58.8244 68.7117 59.2579 68.6633 59.6557 68.6606C60.1601 68.6571 60.5504 68.8278 61.0422 68.8417C62.9973 68.8978 64.9618 68.83 66.9181 68.8377C67.918 68.8417 68.8448 68.4841 69.8131 68.4833C70.2811 68.483 70.5003 68.4525 70.6641 67.9601C70.8187 67.4943 70.8852 67.0204 70.8825 66.5335C70.8803 66.1837 70.8639 65.8277 70.8783 65.4782C70.9006 64.9391 71.0642 64.4646 71.0601 63.9137C71.0565 63.4964 71.0056 63.0427 71.1001 62.6384C71.2271 62.0942 71.3707 61.4803 71.426 60.9044C71.4542 60.6113 71.369 60.307 71.4079 60.0149C71.4427 59.7508 71.568 59.5273 71.6042 59.266C71.6663 58.8197 71.597 58.2998 71.5948 57.8471C71.5928 57.3167 71.6885 56.9291 71.7824 56.4255C71.8526 56.0495 71.7733 55.574 71.7733 55.1888C71.7733 54.9406 71.7673 54.6992 71.7586 54.4609L71.7586 54.4608Z" fill="#0B0A0E"/>
<path d="M50.55 34.4694C50.55 48.9964 50.1913 60.7727 49.7484 60.7727C49.3056 60.7727 48.947 48.9965 48.947 34.4694C48.947 19.9423 49.3058 8.16609 49.7484 8.16609C50.1911 8.16609 50.55 19.9423 50.55 34.4694Z" fill="#0B0A0E"/>
<path d="M57.8806 26.2959C57.8806 30.6568 54.3268 34.1922 49.9428 34.1922C45.5588 34.1922 42.0051 30.6568 42.0051 26.2959C42.0051 21.935 45.559 18.3996 49.9428 18.3996C54.3266 18.3996 57.8806 21.9348 57.8806 26.2959Z" fill="#0B0A0E"/>
<path d="M57.5953 23.0924C57.0729 23.0924 56.6491 23.4939 56.6073 24.0029L52.3097 23.8766L50.3615 19.9541C50.7018 19.7964 50.9387 19.4559 50.9387 19.058C50.9387 18.5109 50.4927 18.0673 49.9428 18.0673C49.3928 18.0673 48.9469 18.5108 48.9469 19.058C48.9469 19.456 49.1841 19.7969 49.5246 19.9543L47.579 23.8765L43.2784 24.0028C43.2366 23.4938 42.8129 23.0923 42.2907 23.0923C41.7405 23.0923 41.2946 23.536 41.2946 24.083C41.2946 24.6301 41.7405 25.0737 42.2907 25.0737C42.5831 25.0737 42.8437 24.9459 43.0257 24.7462L46.119 27.7506L45.3692 32.5901C45.2773 32.5622 45.1817 32.5429 45.0806 32.5429C44.5306 32.5429 44.0847 32.9863 44.0847 33.5336C44.0847 34.0808 44.5306 34.5243 45.0806 34.5243C45.6305 34.5243 46.0765 34.0806 46.0765 33.5336C46.0765 33.3764 46.0365 33.2301 45.9711 33.0981L49.9427 30.5153L53.777 33.0075C53.68 33.1604 53.6221 33.3397 53.6221 33.5336C53.6221 34.0806 54.068 34.5243 54.618 34.5243C55.1679 34.5243 55.6139 34.0806 55.6139 33.5336C55.6139 32.9865 55.1681 32.5429 54.618 32.5429C54.5821 32.5429 54.548 32.5497 54.5128 32.5534L53.7704 27.7506L56.86 24.7466C57.0422 24.9463 57.3025 25.0738 57.5951 25.0738C58.1452 25.0738 58.591 24.6304 58.591 24.0831C58.591 23.5359 58.1452 23.0924 57.5951 23.0924H57.5953Z" fill="#FFBB00"/>
</g>
<defs>
<clipPath id="clip0_4081_1163">
<rect width="72" height="71" fill="white" transform="translate(4 4)"/>
</clipPath>
</defs>
</svg>
